{
  "asset": {
    "version": "2.0",
    "generator": "THREE.GLTFExporter"
  },
  "scenes": [
    {
      "nodes": [
        1
      ],
      "name": "AuxScene"
    }
  ],
  "scene": 0,
  "nodes": [
    {
      "name": "mesh_0",
      "mesh": 0
    },
    {
      "children": [
        0
      ]
    }
  ],
  "bufferViews": [
    {
      "buffer": 0,
      "byteOffset": 0,
      "byteLength": 132624,
      "target": 34962,
      "byteStride": 12
    },
    {
      "buffer": 0,
      "byteOffset": 132624,
      "byteLength": 132624,
      "target": 34962,
      "byteStride": 12
    },
    {
      "buffer": 0,
      "byteOffset": 265248,
      "byteLength": 132624,
      "target": 34962,
      "byteStride": 12
    },
    {
      "buffer": 0,
      "byteOffset": 397872,
      "byteLength": 88416,
      "target": 34962,
      "byteStride": 8
    },
    {
      "buffer": 0,
      "byteOffset": 486288,
      "byteLength": 22104,
      "target": 34963
    }
  ],
  "buffers": [
    {
      "byteLength": 508392,
      "uri": "data:application/octet-stream;base64,"
    }
  ],
  "accessors": [
    {
      "bufferView": 0,
      "componentType": 5126,
      "count": 11052,
      "max": [
        1.491459846496582,
        1.9185563325881958,
        1.759140968322754
      ],
      "min": [
        -0.4246090352535248,
        -0.16583994030952454,
        -0.1669648140668869
      ],
      "type": "VEC3"
    },
    {
      "bufferView": 1,
      "componentType": 5126,
      "count": 11052,
      "max": [
        0.999177098274231,
        0.9995225667953491,
        0.9994407296180725
      ],
      "min": [
        -0.999177098274231,
        -0.9995225667953491,
        -0.9994407296180725
      ],
      "type": "VEC3"
    },
    {
      "bufferView": 2,
      "componentType": 5126,
      "count": 11052,
      "max": [
        0.9865202903747559,
        0.8329999446868896,
        0.9859411120414734
      ],
      "min": [
        0.06669778376817703,
        0.06669778376817703,
        0.06669778376817703
      ],
      "type": "VEC3"
    },
    {
      "bufferView": 3,
      "componentType": 5126,
      "count": 11052,
      "max": [
        1.125,
        1
      ],
      "min": [
        -0.05000000074505806,
        -0.05000000074505806
      ],
      "type": "VEC2"
    },
    {
      "bufferView": 4,
      "componentType": 5123,
      "count": 11052,
      "max": [
        11051
      ],
      "min": [
        0
      ],
      "type": "SCALAR"
    }
  ],
  "materials": [
    {
      "pbrMetallicRoughness": {
        "metallicFactor": 0.5,
        "roughnessFactor": 0.5
      },
      "emissiveFactor": [
        0.1,
        0.1,
        0.1
      ],
      "doubleSided": true
    }
  ],
  "meshes": [
    {
      "primitives": [
        {
          "mode": 4,
          "attributes": {
            "POSITION": 0,
            "NORMAL": 1,
            "COLOR_0": 2,
            "TEXCOORD_0": 3
          },
          "indices": 4,
          "material": 0
        }
      ]
    }
  ]
}